<svg width="11" height="11" viewBox="0 0 11 11" fill="none" xmlns="http://www.w3.org/2000/svg">
<g id="Frame">
<path id="Vector" d="M10.4534 2.93219L9.42219 1.91985C9.29333 1.79141 9.1188 1.71928 8.93686 1.71928C8.75492 1.71928 8.58039 1.79141 8.45153 1.91985L4.46876 5.85363L2.89223 4.32395C2.7631 4.19592 2.58851 4.12427 2.40667 4.12467C2.22483 4.12508 2.05056 4.1975 1.922 4.3261L0.890748 5.35735C0.762046 5.48625 0.689758 5.66095 0.689758 5.84311C0.689758 6.02526 0.762046 6.19997 0.890748 6.32887L3.96817 9.42262C4.03201 9.48648 4.10781 9.53713 4.19123 9.57169C4.27465 9.60625 4.36406 9.62404 4.45436 9.62404C4.54466 9.62404 4.63407 9.60625 4.71749 9.57169C4.80091 9.53713 4.87671 9.48648 4.94055 9.42262L10.4556 3.90629C10.5196 3.84228 10.5703 3.76626 10.6048 3.6826C10.6393 3.59895 10.657 3.5093 10.6568 3.41879C10.6566 3.32829 10.6385 3.23872 10.6036 3.15522C10.5687 3.07171 10.5177 2.99592 10.4534 2.93219ZM4.45243 8.9375L1.37501 5.84375L2.40626 4.8125C2.40751 4.81354 2.40866 4.81469 2.40969 4.81594L4.22942 6.58152C4.29366 6.64438 4.37996 6.67958 4.46983 6.67958C4.5597 6.67958 4.646 6.64438 4.71024 6.58152L8.94008 2.40625L9.96876 3.42031L4.45243 8.9375Z" fill="black"/>
</g>
</svg>
