<svg width="32" height="32" viewBox="0 0 32 32" fill="none" xmlns="http://www.w3.org/2000/svg">
<g id="Frame">
<g id="Group">
<g id="Group_2">
<path id="Path" fill-rule="evenodd" clip-rule="evenodd" d="M13.067 17.57L11.228 15.125L12.578 14.672C12.823 14.59 13.092 14.628 13.304 14.775L14.476 15.584L17.295 14.343L14.35 10.612L16.748 10.102L20.621 13.135L24.751 11.489C25.762 11.086 26.878 11.76 26.991 12.842V12.842C27.067 13.56 26.664 14.244 25.998 14.526L18.595 17.66C18.405 17.74 18.203 17.784 17.997 17.789L13.743 17.895C13.478 17.904 13.226 17.782 13.067 17.57Z" stroke="black" stroke-width="1.4" stroke-linecap="round" stroke-linejoin="round"/>
<path id="Path_2" d="M24.035 11.8C22.59 8.96099 19.648 7.01199 16.245 7.01199C11.415 7.01199 7.5 10.929 7.5 15.762C7.5 20.594 11.415 24.512 16.245 24.512C21.075 24.512 24.99 20.595 24.99 15.762C24.99 15.501 24.973 15.245 24.951 14.99" stroke="black" stroke-width="1.4" stroke-linecap="round" stroke-linejoin="round"/>
<path id="Path_3" d="M7.52002 16.349C5.65602 17.716 4.64702 19.233 5.09702 20.293C5.73502 21.873 9.33502 21.908 13.138 20.371" stroke="black" stroke-width="1.4" stroke-linecap="round" stroke-linejoin="round"/>
</g>
</g>
</g>
</svg>
