<svg width="33" height="32" viewBox="0 0 33 32" fill="none" xmlns="http://www.w3.org/2000/svg">
<g id="Frame">
<path id="Vector" d="M28.2338 10.395C29.6214 13.2973 29.8848 16.6107 28.9732 19.6957C28.0616 22.7808 26.0395 25.4188 23.2972 27.1006C20.5549 28.7825 17.2868 29.3889 14.1237 28.8029C10.9606 28.2169 8.12669 26.4799 6.1689 23.9274C4.21112 21.3748 3.26825 18.1874 3.52229 14.9805C3.77632 11.7737 5.20924 8.77454 7.54449 6.56201C9.87975 4.34949 12.9518 3.08041 16.1677 2.9997C19.3836 2.919 22.5155 4.0324 24.9588 6.12501L27.7925 3.29001C27.9801 3.10237 28.2346 2.99695 28.5 2.99695C28.7654 2.99695 29.0199 3.10237 29.2075 3.29001C29.3951 3.47765 29.5006 3.73215 29.5006 3.99751C29.5006 4.26287 29.3951 4.51737 29.2075 4.70501L17.2075 16.705C17.0199 16.8927 16.7654 16.9981 16.5 16.9981C16.2346 16.9981 15.9801 16.8927 15.7925 16.705C15.6049 16.5174 15.4994 16.2629 15.4994 15.9975C15.4994 15.7321 15.6049 15.4776 15.7925 15.29L19.2575 11.825C18.3184 11.204 17.1973 10.918 16.0755 11.0134C14.9537 11.1089 13.8969 11.5801 13.0763 12.3509C12.2556 13.1217 11.7191 14.1469 11.5536 15.2605C11.3882 16.3741 11.6034 17.511 12.1644 18.4871C12.7254 19.4632 13.5995 20.2214 14.6451 20.6389C15.6906 21.0564 16.8465 21.1089 17.9256 20.7877C19.0047 20.4666 19.9438 19.7906 20.5909 18.8693C21.238 17.948 21.5552 16.8353 21.4913 15.7113C21.4839 15.5799 21.5024 15.4484 21.5458 15.3243C21.5893 15.2001 21.6567 15.0858 21.7444 14.9877C21.832 14.8896 21.9381 14.8097 22.0566 14.7527C22.1751 14.6956 22.3037 14.6624 22.435 14.655C22.7002 14.6401 22.9605 14.7311 23.1586 14.9081C23.2567 14.9958 23.3365 15.1019 23.3936 15.2204C23.4507 15.3389 23.4839 15.4674 23.4913 15.5988C23.5824 17.1897 23.128 18.7642 22.2031 20.0619C21.2782 21.3596 19.9382 22.3029 18.4046 22.7359C16.8709 23.1689 15.2355 23.0656 13.7685 22.4431C12.3015 21.8207 11.0908 20.7163 10.3365 19.3125C9.58223 17.9088 9.32949 16.2897 9.62008 14.7228C9.91067 13.1559 10.7272 11.7351 11.9347 10.6952C13.1422 9.65523 14.6684 9.05843 16.261 9.0034C17.8536 8.94837 19.4174 9.4384 20.6938 10.3925L23.5375 7.54876C21.4535 5.8185 18.8037 4.91921 16.0971 5.0236C13.3904 5.128 10.8178 6.22871 8.87324 8.11434C6.9287 9.99997 5.74939 12.5376 5.56181 15.2397C5.37423 17.9419 6.1916 20.6181 7.85695 22.7543C9.5223 24.8905 11.9182 26.3361 14.5844 26.8135C17.2507 27.2909 19.9993 26.7663 22.3024 25.3406C24.6055 23.9149 26.3006 21.6886 27.0623 19.0892C27.8239 16.4898 27.5983 13.7007 26.4288 11.2575C26.3144 11.0182 26.2998 10.7432 26.3881 10.493C26.4765 10.2429 26.6606 10.0381 26.9 9.92376C27.1394 9.80938 27.4144 9.79478 27.6645 9.88316C27.9146 9.97153 28.1194 10.1557 28.2338 10.395Z" fill="#7D848D"/>
</g>
</svg>
